<svg class="icon" style="fill: currentColor; width: 1em; height: 1em; vertical-align: middle; overflow: hidden" viewBox="0 0 1024 1024" version="1.1" xmlns="http://www.w3.org/2000/svg" p-id="4101"><path d="M 5 -7 m 102.4 0 l 819.2 0 q 102.4 0 102.4 102.4 l 0 819.2 q 0 102.4 -102.4 102.4 l -819.2 0 q -102.4 0 -102.4 -102.4 l 0 -819.2 q 0 -102.4 102.4 -102.4 Z" fill="#f2f2f2" p-id="4102"></path><path d="M 513 161.6 C 625.2 161.8 719 247 730.1 358.7 C 741.1 470.3 665.7 572.2 555.7 594.4 C 445.7 616.5 336.8 551.8 303.7 444.5 C 270.7 337.3 324.2 222.4 427.6 178.8 C 454.6 167.3 483.7 161.5 513 161.6 m 0 -36.6 C 371.6 125 257 239.6 257 381 C 257 522.4 371.6 637 513 637 C 654.4 637 769 522.4 769 381 C 769 239.6 654.4 125 513 125 z" fill="#aaaaaa" p-id="4103"></path><path d="M 481.8 527.9 C 481.8 544.6 495.3 558.1 512 558.1 C 528.7 558.1 542.2 544.6 542.2 527.9 C 542.2 511.3 528.7 497.8 512 497.8 C 504 497.8 496.3 500.9 490.7 506.6 C 485 512.3 481.8 519.9 481.8 527.9 z" fill="#aaaaaa" p-id="4104"></path><path d="M 550.7 244.7 C 551 230.6 543.7 217.5 531.6 210.4 C 519.5 203.3 504.5 203.3 492.4 210.4 C 480.3 217.5 473 230.6 473.4 244.7 l 14.5 182.1 C 488.3 439.8 499 450.2 512 450.2 C 525.1 450.2 535.7 439.8 536.2 426.8 l 14.5 -182.1 z" fill="#aaaaaa" p-id="4105"></path>
  <text font-size="143.1" textLength="651.3" x="200.6" y="879.5" fill="#5f5f5f">
    加载失败
  </text></svg>